<?xml version="1.0" encoding="utf-8"?>
<!-- Generator: Adobe Illustrator 22.1.0, SVG Export Plug-In . SVG Version: 6.00 Build 0)  -->
<svg version="1.1" id="Layer_1" xmlns="http://www.w3.org/2000/svg" xmlns:xlink="http://www.w3.org/1999/xlink" x="0px" y="0px"
	 viewBox="0 0 2000.5 107.7" style="enable-background:new 0 0 2000.5 107.7;" xml:space="preserve">
<style type="text/css">
	.st0{opacity:0.2;fill:#1A1A1A;enable-background:new    ;}
	.st1{opacity:0.4;fill:#1A1A1A;enable-background:new    ;}
	.st2{fill:#1A1A1A;}
</style>
<path class="st0" d="M2000,1.4c-346-0.6-524.6-4.7-878.8,4.4c-286.6,7.4-442.3,54-608.1,51.2C307.8,53.5,203-15.8,0,7.3v100.4
	l2000-0.5V1.4z"/>
<path class="st0" d="M0.2,24.8C251.5-6,441.4,63.4,500.1,77.1c54.7,12.8,122.5,12,186.7-5.3C841,30.2,1002.3,0.9,1162,4.3
	s324.6,22.4,484.3,19.7c133-2.3,302.8,1.7,352.8,3.7c0,21.3,0,80,0,80H0L0.2,24.8z"/>
<path class="st1" d="M2000.5,18.9C1860.7,6.2,1780.6,8.1,1640.3,7.7c-285.5-0.8-487.5,18-736.2,51.1
	C647.5,93.1,547.2,94.1,199.7,31.3C140.8,20.7,60,23.3,0,30v77.7h2000L2000.5,18.9z"/>
<path class="st2" d="M1635.1,27.8c-193.8,11.9-366.9,24.9-569,50C955.9,91.5,844.9,99.3,733.8,97.4c-187-3.3-344.5-29.7-560.9-69.8
	C50.7,5,0.1,23.6,0.1,23.6v84.1h1998v-84C1998,23.7,1831.5,15.8,1635.1,27.8z"/>
</svg>
