<?xml version="1.0" encoding="utf-8"?>
<!-- Generator: Adobe Illustrator 22.1.0, SVG Export Plug-In . SVG Version: 6.00 Build 0)  -->
<svg version="1.1" id="Layer_1" xmlns="http://www.w3.org/2000/svg" xmlns:xlink="http://www.w3.org/1999/xlink" x="0px" y="0px"
	 viewBox="0 0 2000.5 107.7" style="enable-background:new 0 0 2000.5 107.7;" xml:space="preserve">
<style type="text/css">
	.st0{opacity:0.2;fill:#DEE4E3;enable-background:new    ;}
	.st1{opacity:0.4;fill:#DEE4E3;enable-background:new    ;}
	.st2{fill:#DEE4E3;}
</style>
<path class="st0" d="M0.5,107.2l2000,0.5V7.3c-203-23.1-307.8,46.2-513.1,49.7c-165.8,2.8-321.5-43.8-608.1-51.2
	C525.1-3.3,346.5,0.8,0.5,1.4V107.2z"/>
<path class="st0" d="M2000.5,107.7H1.4c0,0,0-58.7,0-80c50-2,219.8-6,352.8-3.7C513.9,26.7,678.8,7.7,838.5,4.3s321,25.9,475.2,67.5
	c64.2,17.3,132,18.1,186.7,5.3C1559.1,63.4,1749-6,2000.3,24.8L2000.5,107.7z"/>
<path class="st1" d="M0.5,107.7h2000V30c-60-6.7-140.8-9.3-199.7,1.3c-347.5,62.8-447.8,61.8-704.4,27.5
	C847.7,25.7,645.7,6.9,360.2,7.7C219.9,8.1,139.8,6.2,0,18.9L0.5,107.7z"/>
<path class="st2" d="M2.4,23.7v84h1998V23.6c0,0-50.6-18.6-172.8,4c-216.4,40.1-373.9,66.5-560.9,69.8
	c-111.1,1.9-222.1-5.9-332.3-19.6c-202.1-25.1-375.2-38.1-569-50C169,15.8,2.5,23.7,2.4,23.7z"/>
</svg>
