<?xml version="1.0" encoding="utf-8"?>
<!-- Generator: Adobe Illustrator 22.1.0, SVG Export Plug-In . SVG Version: 6.00 Build 0)  -->
<svg version="1.1" id="Layer_1" xmlns="http://www.w3.org/2000/svg" xmlns:xlink="http://www.w3.org/1999/xlink" x="0px" y="0px"
	 viewBox="0 0 497.5 140.4" style="enable-background:new 0 0 497.5 140.4;" xml:space="preserve">
<style type="text/css">
	.st0{fill-rule:evenodd;clip-rule:evenodd;fill:#FFFFFF;}
	.st1{fill:#FFFFFF;}
</style>
<title>partner</title>
<g>
	<path class="st0" d="M91.3,124.7c-1.1,0.1-2.1,0.1-3.2,0.1c-1.2,0-2.4-0.1-3.6-0.1l3.5-8.4L91.3,124.7 M95.2,134.3
		c0.6,0,1.6-0.2,2.5-0.2c1,0,2.2,0.2,2.7,0.2c-1.6-3.3-3.8-8.5-5.1-11.5c-1.2-2.9-3.3-7.7-4.9-12.4c-0.4,0.1-0.7,0.2-1.1,0.2
		c-0.4,0-0.8-0.1-1.1-0.2c-0.8,2.8-2.8,7.3-6.3,15l-4,8.9c0.5-0.1,1-0.2,1.5-0.2c0.6,0,1.2,0.1,1.7,0.2c0.6-2,1.6-4.8,2.7-7.5
		c1.4-0.1,2.7-0.1,4.1-0.1c1.5,0,2.9,0.1,4.4,0.1l1.4,3.7L95.2,134.3z"/>
	<path class="st1" d="M103.4,118.6c0,5.9,0,11.5-0.4,15.6c0.8,0,1.7-0.2,2.5-0.2c0.8,0,1.6,0.2,2.4,0.2c-0.3-2.8-0.3-6.5-0.3-11.6
		c0-3.5,0-9.4,0.4-12c-0.8,0.1-1.7,0.2-2.4,0.2c-0.5,0-1.8-0.1-2.4-0.2C103.4,114,103.4,116.5,103.4,118.6"/>
	<path class="st0" d="M123.8,122.6c3.1-0.6,6-2.5,6-6.4c0-1.4-0.6-2.9-1.6-3.9c-1.5-1.4-3.2-1.7-5.4-1.7c-0.8,0-4.8,0.2-5.7,0.2
		c-1.8,0-2.7-0.1-3.4-0.2c0.2,4.4,0.2,4.9,0.2,9.4c0,6.6,0,7.4-0.3,14.2c0.8-0.1,1.6-0.2,2.4-0.2c0.9,0,1.6,0.1,2.3,0.2
		c0-0.9-0.1-5.3-0.1-6.3v-4.9h0.8c1.9,2.6,4,5.6,5.7,8.4c0.5,0.8,1.3,2.1,1.8,2.8c1-0.1,1.4-0.2,2.8-0.2c1.2,0,2.1,0.1,3.1,0.2
		c-2.2-2.7-3.1-3.9-5.8-7.7c-0.5-0.7-1.3-1.9-1.8-2.6L123.8,122.6 M118.2,112.5c0.5,0,1.8-0.2,2.4-0.2c1.1,0,2.3,0.2,3.2,0.9
		c1.2,0.9,1.4,2.1,1.4,3.6c0,2.2-1.3,4.7-4.7,4.7c-0.9,0-1.7-0.1-2.4-0.1V112.5z"/>
	<path class="st1" d="M141.7,126.2c-1.6-4.8-3.8-11.5-4.9-15.5c-0.9,0.1-1.6,0.2-2.4,0.2c-0.8,0-2-0.1-2.7-0.2
		c1.4,3.7,2.6,7,3.5,9.6c1.6,4.5,2.6,7.6,3.9,11.3l0.9,2.6c0.5-0.1,1-0.2,1.4-0.2c0.4,0,0.7,0.1,1.3,0.2c0.5-1.8,1.2-4,1.7-5.4
		c1.3-3.9,1.5-4.5,3.3-9.3l1-2.9c0.4,1.1,1,2.9,1.4,3.9c0.4,1.1,2.1,6.3,2.5,7.5c0.6,1.5,0.7,2,2,6.1c0.3,0,1-0.2,1.5-0.2
		c0.5,0,0.9,0.1,1.4,0.2c1.3-4.1,1.4-4.5,3.4-10c1.9-5.4,3.1-8.4,5.1-13.6c-0.5,0.1-1,0.2-1.5,0.2c-0.6,0-1.2-0.1-1.6-0.2
		c-1.2,4.5-1.9,6.6-2.8,9.6c-1.6,4.8-1.8,5.4-2.8,8c-1.1-3-2.2-6-3.2-9c-0.6-1.7-2.6-8.5-2.7-8.6c-0.5,0.1-0.8,0.2-1.5,0.2
		c-0.6,0-1.1-0.1-1.5-0.2c-1,4.2-4.7,14.3-5,15.2l-0.9,2.2L141.7,126.2"/>
	<path class="st0" d="M176.4,124.7c-1.1,0.1-2.1,0.1-3.2,0.1c-1.2,0-2.4-0.1-3.6-0.1l3.5-8.4L176.4,124.7 M180.3,134.3
		c0.6,0,1.6-0.2,2.5-0.2c1,0,2.2,0.2,2.7,0.2c-1.5-3.3-3.8-8.5-5.1-11.5c-1.2-2.9-3.3-7.7-5-12.4c-0.4,0.1-0.7,0.2-1.1,0.2
		c-0.4,0-0.8-0.1-1.1-0.2c-0.8,2.8-2.8,7.3-6.3,15l-4,8.9c0.5-0.1,1-0.2,1.5-0.2c0.6,0,1.2,0.1,1.7,0.2c0.6-2,1.7-4.8,2.8-7.5
		c1.4-0.1,2.7-0.1,4.1-0.1c1.5,0,2.9,0.1,4.4,0.1l1.4,3.7L180.3,134.3z"/>
	<path class="st1" d="M194.7,125.1c0-0.3,0.2-0.7,0.4-1.1c1.4-2.5,2.8-5.1,4.3-7.5c0.5-0.8,3-4.8,3.5-5.7c-0.4,0.1-0.8,0.2-1.4,0.2
		c-0.8,0-1.4-0.1-2-0.2c-2.5,5.4-3,6.6-5.9,11.6c-2.9-5.1-4.2-7.8-6-11.6c-1,0.2-2,0.2-2.8,0.2c-0.8,0-1.5-0.1-2.8-0.2
		c1.8,3,4.7,7.7,6.5,10.8l2,3.5c0,2.1-0.1,6.6-0.2,9.3c0.7-0.1,1.6-0.2,2.3-0.2c0.8,0,1.6,0.1,2.4,0.2c-0.1-3.2-0.2-5-0.2-7.9V125.1
		"/>
	<path class="st1" d="M205,129.1c-0.2,1.6-0.2,2.1-0.8,3.9c1.2,0.6,3.5,1.8,6.4,1.8c6.3,0,8.7-4,8.7-7.5c0-1-0.2-3-1.7-4.5
		c-1-1.1-2-1.5-4.7-2.5c-3-1.2-4.8-1.9-4.8-4.4c0-2,1.3-3.7,4.1-3.7c2.2,0,4,1,4.5,3h0.5c0.3-1.3,0.4-1.6,1.1-3.3
		c-1.7-0.8-3.2-1.4-5.7-1.4c-6.2,0-8,3.8-8,6.9c0,2.9,1,4.6,4.3,6.1c1,0.4,2.6,1,3.5,1.4c0.7,0.3,2.8,1.2,2.8,4
		c0,2.5-1.8,4.3-4.5,4.3c-2,0-3.8-0.5-5.3-4H205"/>
	<path class="st0" d="M14.1,65.6c0-26,13.9-33,24.4-33c16.9,0,24.2,14,24.2,29c0,8.6-1,16.6-5.3,23.1c-4.2,6.5-11.2,10.4-18.9,10.4
		C19.6,95.1,14.1,77,14.1,65.6 M65.5,118.7c3.1-2.2,7.9-4.8,11.4-6.4L53.6,97.9c14.3-5,23.3-17.8,23.3-35.2
		c0-24.7-18.9-35.3-38.1-35.3C17.9,27.4,0,38.9,0,65.1c0,5.6,1.2,16.1,9.9,24.8c9,9.1,19.6,10.4,28.6,10.4c1.1,0,2.3,0,3.4-0.1
		L65.5,118.7z"/>
	<path class="st0" d="M125,70.2c-3.2,0.2-6.3,0.4-9.5,0.4c-3.6,0-7.1-0.3-10.7-0.4l10.5-25.4L125,70.2 M136.6,98.9
		c1.9-0.1,4.7-0.6,7.6-0.6c2.9,0,6.5,0.5,8,0.6c-4.6-10-11.4-25.6-15.4-34.5c-3.7-8.7-9.9-23.1-14.8-37.2c-1.1,0.3-2.2,0.5-3.3,0.5
		c-1.2,0-2.3-0.2-3.4-0.5c-2.5,8.5-8.5,21.9-18.9,45.1l-12,26.6c1.4-0.2,2.9-0.6,4.6-0.6c1.6,0,3.6,0.4,5,0.6
		c1.6-5.9,4.9-14.4,8.2-22.4c4.1-0.2,8.2-0.4,12.4-0.4c4.4,0,8.8,0.2,13.2,0.4l4.3,10.9L136.6,98.9z"/>
	<path class="st1" d="M182.4,46.7c0-3.9,0.1-7.8,0.2-11.6c7.1,0,14.4,0.1,20.5,0.7c-0.3-1.7-0.5-2.6-0.5-3.7c0-0.8,0.2-2.2,0.5-3.9
		c-9.9,0.5-19,0.6-27.5,0.6c-7.9,0-19.4-0.1-27.5-0.6c0.3,1.2,0.5,2.6,0.5,3.8c0,1.2-0.2,2.6-0.5,3.8c5.3-0.5,15.2-0.7,16.1-0.7h5.2
		c0.1,4,0.2,7.6,0.2,11.4l0.1,28.8c0,7.8-0.6,15.8-1,23.6c3.7-0.4,5.3-0.6,7-0.6c1.2,0,4.5,0.3,7.5,0.6c-0.3-2.9-0.7-6.3-0.7-14.1
		V46.7"/>
	<path class="st0" d="M239.7,70.2c-3.2,0.2-6.3,0.4-9.5,0.4c-3.6,0-7.1-0.3-10.7-0.4L230,44.8L239.7,70.2 M251.4,98.9
		c1.8-0.1,4.7-0.6,7.6-0.6c2.9,0,6.5,0.5,8,0.6c-4.6-10-11.4-25.6-15.4-34.5c-3.7-8.7-9.9-23.1-14.8-37.2c-1.1,0.3-2.2,0.5-3.3,0.5
		c-1.2,0-2.3-0.2-3.4-0.5c-2.5,8.5-8.4,21.9-18.9,45.1l-12,26.6c1.4-0.2,2.9-0.6,4.6-0.6c1.7,0,3.6,0.4,5,0.6
		c1.6-5.9,4.9-14.4,8.2-22.4c4.1-0.2,8.2-0.4,12.4-0.4c4.4,0,8.8,0.2,13.2,0.4l4.3,10.9L251.4,98.9z"/>
	<path class="st0" d="M308.6,63.9c9.4-1.7,17.9-7.6,17.9-19.1c0-4.3-1.7-8.6-4.7-11.5c-4.4-4.2-9.5-5-16.2-5c-2.4,0-14.3,0.5-17,0.5
		c-5.3,0-7.9-0.3-10.3-0.5c0.7,13.3,0.7,14.7,0.7,28.2c0,19.9-0.1,22.2-0.9,42.5c2.3-0.3,4.7-0.6,7.1-0.6c2.6,0,4.9,0.4,6.9,0.6
		c0-2.7-0.4-16-0.4-19V65.3h2.5c5.6,7.8,12,16.9,17.2,25c1.5,2.4,3.8,6.2,5.4,8.6c3.1-0.4,4.3-0.6,8.3-0.6c3.7,0,6.3,0.3,9.2,0.6
		c-6.5-8.1-9.3-11.8-17.4-23.2c-1.6-2.2-3.8-5.6-5.4-7.7L308.6,63.9 M291.7,33.8c1.5-0.1,5.4-0.5,7.3-0.5c3.4,0,6.8,0.5,9.6,2.6
		c3.6,2.7,4.3,6.4,4.3,10.7c0,6.7-3.8,14.2-14.1,14.2c-2.7,0-5.2-0.2-7.1-0.3V33.8z"/>
	<path class="st1" d="M234.5,130.5h-4.2c0,0-0.6-2.6,1-3.6c1.5-1,3.3-1.8,3.3-1.8V130.5 M254.6,120.8c0,0-2.6,1.5-4.2,2.9
		c-1.6,1.4,0.3,2,0.3,2v4.8h-12.3v-17c0,0-4.5,4.1-4.9,4.7c-0.4,0.6,1.1,1.1,1.1,1.1l-0.2,1.6c0,0-1.8,0.9-4,2.4
		c-2.2,1.4-3.8,3.3-3.8,4.6c0,1.3-0.5,6.3-0.5,6.3h28.5V120.8z M229.1,114.6c1.4,0,2.4-0.6,2.4-1.7c0-1.1-0.7-1.9-2.4-1.9
		c-1.6,0-2,0.7-2,1.9C227.2,114.2,227.7,114.6,229.1,114.6z M234.4,114.6c1.4,0,2.4-0.6,2.4-1.7c0-1.1-0.7-1.9-2.4-1.9
		c-1.6,0-2,0.7-2,1.9C232.4,114.2,233,114.6,234.4,114.6z M242.3,135.7c-1.5,0-2,0.7-2,1.9c0,1.2,0.5,1.7,2,1.7
		c1.4,0,2.4-0.6,2.4-1.7C244.7,136.5,244.1,135.7,242.3,135.7z M247.8,135.7c-1.5,0-2,0.7-2,1.9c0,1.2,0.6,1.7,2,1.7
		c1.4,0,2.4-0.6,2.4-1.7C250.2,136.5,249.5,135.7,247.8,135.7z M309.2,114.3c1.4,0,2.4-0.5,2.4-1.7c0-1.1-0.7-1.9-2.4-1.9
		c-1.5,0-1.9,0.7-1.9,1.9C307.2,113.8,307.8,114.3,309.2,114.3z M314.6,114.3c1.4,0,2.4-0.5,2.4-1.7c0-1.1-0.7-1.9-2.4-1.9
		c-1.5,0-2,0.7-2,1.9C312.7,113.8,313.2,114.3,314.6,114.3z M329.6,114.7c-0.8,0.7-0.5,1.5,0.4,1.3v18.2h4v-22.7
		C334.1,111.6,330.4,114.1,329.6,114.7z M313.4,124.9h-2.6c0-1.4,2.6-2.2,2.6-2.2V124.9z M296.2,127.9c0,0.7,0,1.7-0.1,2.6h-22.8v-4
		c0.6-1.5,1.6-1.7,3.2-1.7h16.7C296.8,124.8,296.2,126.7,296.2,127.9z M322.9,116v14.5h-5.4v-13.2c0,0-1.1,0.4-2.6,1.1
		c-1.5,0.7-7,2.9-7,5.9v3.5h5.6v2.7h-13.2c0-0.6,0-1.6,0-2.9c0-4.3-3.7-6.7-7-6.7H278c-2.7,0-4,0.6-4.7,1.4v-11.2c0,0-2.4,1.7-4.1,3
		c-1.7,1.3,0,2.2,0,2.2v14.2h-5l-0.1-12.2c0,0-3.5,2.5-4.5,3.3c-1,0.8-0.4,1.5,0.7,1.5c0,0-0.2,9-0.2,11.1c0,2.1-1.8,4.6-5.5,3.5
		c0,0-1.2,0.2-0.2,1.1c1,0.9,2.2,1.6,3.5,1.6c1.3,0,6.1-0.9,6.1-6.1h62.9v-22.7c0,0-3.7,2.4-4.5,3.1
		C321.7,115.4,321.9,116.2,322.9,116z"/>
	<g>
		<path class="st1" d="M406.3,95.9c-3.4,1.2-7.5,1.9-9.1,1.9c-2.9,0-7.5,1.6-9.2,3c6.9-0.1,14.3-0.3,21.5-0.4c-0.5-0.7-2-3-2-3
			C407,96.5,406.6,96.1,406.3,95.9C406.4,95.9,406.4,95.9,406.3,95.9 M364.5,44.5c9,0,25.7-0.2,42.1-0.6c1.9-1.5,3.8-3,5.8-4.5
			c-18.2-0.5-37.8-0.7-47.9-0.7c-4.3,0-7.7,1.3-7.7,2.9C356.8,43.2,360.3,44.5,364.5,44.5 M367.1,30.3c0,1.3,2.7,2.3,6.1,2.3
			c10.3,0,33.2-0.4,49.9-0.9c1.2-0.9,2.5-1.8,3.7-2.6C410,28.5,384.3,28,373.2,28C369.9,28,367.1,29.1,367.1,30.3 M441.4,62.3
			c1.8,1.1,4.1,2.2,6.8,3.2c8.8-0.4,14.4-0.9,14.4-1.4C462.7,63.4,454,62.8,441.4,62.3 M359.3,56.1c7.7,0,20.2-0.1,33.8-0.4
			c2-1.9,4.1-3.8,6.3-5.7c-16-0.3-31.2-0.5-40-0.5c-4.8,0-8.7,1.5-8.7,3.3C350.6,54.6,354.5,56.1,359.3,56.1 M446.4,40.7
			c-1.3,0.7-2.6,1.3-3.8,2c6.4-0.3,10.5-0.7,10.5-1.1C453.1,41.3,450.5,41,446.4,40.7 M386.9,23c9.8,0,39.6-0.7,39.6-1.6
			c0-0.9-29.8-1.6-39.6-1.6c-1.9,0-3.4,0.7-3.4,1.6C383.4,22.3,385,23,386.9,23 M451.1,52.5c-0.1,0.3-0.3,0.8-0.6,1.4
			c5.4-0.3,8.8-0.7,8.8-1.1c0-0.4-3-0.7-8-1L451.1,52.5z M414,106.9c-18.6-0.5-39.1-0.8-49.5-0.8c-4.3,0-7.7,1.3-7.7,2.9
			c0,1.6,3.4,2.9,7.7,2.9c10.9,0,33-0.3,52.4-0.9C416,109.7,415,108.3,414,106.9 M422.9,118.9c-16.7-0.6-39.4-0.9-49.7-0.9
			c-3.3,0-6.1,1-6.1,2.3c0,1.3,2.7,2.3,6.1,2.3c10.7,0,35.2-0.4,52-1C424.4,120.7,423.6,119.8,422.9,118.9 M383.4,129.2
			c0,0.9,1.5,1.6,3.4,1.6c9.8,0,39.6-0.7,39.6-1.6c0-0.9-29.8-1.6-39.6-1.6C385,127.6,383.4,128.3,383.4,129.2 M365.8,90
			c0.2-0.8,0.5-1.7,1.3-2.7c-0.1,0.1-0.2,0.2-0.1,0c0.7-1.1,1.6-2.6,2.7-4.2c-5.1,0-9.7-0.1-13.2-0.1c-5.1,0-9.2,1.6-9.2,3.5
			c0,2,4.1,3.5,9.2,3.5C359.1,90,362.3,90,365.8,90 M373.3,101c-1.2-1.2-5.4-6-5.9-6.5c-3,0-5.8,0-8.1,0c-4.8,0-8.7,1.5-8.7,3.3
			c0,1.8,3.9,3.3,8.7,3.3C363,101.1,367.8,101.1,373.3,101 M372.7,78.7c1.5-2.1,3.3-4.4,5.3-6.8c-9-0.1-16.9-0.2-22.4-0.2
			c-5.2,0-9.4,1.6-9.4,3.6c0,2,4.2,3.6,9.4,3.6C360,78.9,365.9,78.8,372.7,78.7 M356.5,67.6c6.1,0,15.1-0.1,25.4-0.2
			c1.8-2.1,3.8-4.2,6-6.5c-12.7-0.2-24.1-0.3-31.4-0.3c-5.1,0-9.2,1.6-9.2,3.5C347.3,66,351.4,67.6,356.5,67.6"/>
		<path class="st1" d="M463.6,72.6c0.1,1.8,0.1,3.6,0,5.3c-17.4,0.7-33.8,1.7-33.8,2.9c0,1.2,16.1,2.2,33.2,2.9
			c-0.3,2-0.7,3.9-1.2,5.8c-16.9,0.7-32.6,1.7-32.6,2.9c0,1.1,14.6,2.1,30.9,2.8c-0.7,2.1-1.6,4.1-2.5,6
			c-13.9,0.7-25.4,1.6-25.4,2.5c0,0.9,10.1,1.8,22.7,2.4c-0.7,1.2-1.5,2.3-2.2,3.4c-0.8,1.2-1.7,2.3-2.7,3.5
			c-7.9,0.6-13.4,1.3-13.4,2c0,0.6,3.9,1.2,9.9,1.8c-3.3,3.2-7.1,6.3-11.7,8.9c0,0-5.4-4.6-9.8-10c-4-4.8-12.3-17.5-14.3-20.4
			c-2-2.8-3.3-3.7-5.6-2.8c-3.1,1.1-6.7,1.6-7.8,1.6c-1.1,0-1.7-0.4,0.1-1.2c1.8-0.7,9.2-4.2,12.8-11.3c4-8,0.5-19.1,0.5-19.1
			c-1.4,5.9-4.4,8.1-4.4,8.1c1-5.5-0.1-10.5-2.8-14l-1.5,7c0,0-1,0-3.3,1.9c-2.3,2-3,4.9-3,4.9c1.9,0.7,4.1-1.1,4.1-1.1
			c-2.8,10.6-6.9,19.3-9.9,23.8c-3,4.6-5.4,6.3-8.4,7.5c-2.5,1-3.3-0.2-3.3-0.2c-2.2-1.9-3.8-3.6-5.5-5.7c0,0-0.1-0.2,0.3-0.2
			c1.2,0,3.4-2.1,3.9-2.9c0.5-1,0.5-1.7,0.2-1.8c-0.3,0-0.7,0.7-3.1,2.2c-2.3,1.5-3.4,0.5-4.2-0.4c-0.6-0.7,0-1.5,0.4-2
			c0.4-0.5,12.7-23.6,45.5-47.8c43-31.8,70.4-40.4,72-41c1-0.4,2.7-0.9,3.1-0.6c0.4,0.4,0.6,0.8,0.6,1.3c-0.1,0.5-0.3,0.8-2.3,1.7
			c-16.5,7.3-35.8,19.4-46.7,26.4c-13.5,6.6-26.3,15.9-26.8,16.1c-1,0.6-0.3,1.6,0.4,1.2c22.7-15.1,49.4-25.4,78.8-33.8
			c1.4-0.4,2.2-0.4,2.4-0.1c0.3,0.3,0.4,0.7,0.4,1.2c0,0.5-0.4,0.8-1.6,1.3c-31.6,11.7-54.9,22.7-69.9,32.7c0,0-1.6,0.9-1.6,2
			c0,0.4,0.8,0.5,0.8,0.5c7.5,0.1,17.5,0.6,22.3,0.9c0,0-0.7,2.4-5.2,4.4c-3.5,1.5-6.8,1.3-10,1.3c-0.7,0-1.3,0.7-0.8,1.5
			C431.8,59,438.6,70.1,463.6,72.6"/>
	</g>
</g>
</svg>
