<?xml version="1.0" encoding="utf-8"?>
<!-- Generator: Adobe Illustrator 22.1.0, SVG Export Plug-In . SVG Version: 6.00 Build 0)  -->
<svg version="1.1" id="Layer_1" xmlns="http://www.w3.org/2000/svg" xmlns:xlink="http://www.w3.org/1999/xlink" x="0px" y="0px"
	 viewBox="0 0 603.9 327.3" style="enable-background:new 0 0 603.9 327.3;" xml:space="preserve">
<style type="text/css">
	.st0{fill:#FFFFFF;}
</style>
<title>partner</title>
<g>
	<path class="st0" d="M357,134.7c0.8,0.6,1.5,1,2.3,1.5c9-2.8,19.1-3.4,26.5,0.4c0.9,0.4,1.6,0.9,2.4,1.5c1.7-0.6,3.4-1.3,5-2.1
		c-4.3-2.7-11.6-5.5-22.7-8.2C364.9,132.3,360.4,134.5,357,134.7z M383.1,115.8c5.6,3.1,10.5,7.3,13,12.3c0.9,1.7,1.5,3.5,1.8,5.4
		c1.4-0.8,2.8-1.8,4.2-2.7c-2.2-4.9-6.8-11.5-14.3-20.2C386.1,112.4,384.6,114.1,383.1,115.8z M447.9,73.2
		c-5.5,0.2-11.5,1.1-17.7,2.9c-2.1,7.8-1.5,17.4-1.1,27.1c11.3-13,22.6-24.5,36.2-27.5C461.4,74,455.2,73,447.9,73.2z M398.4,97.5
		C398.4,97.5,398.3,97.5,398.4,97.5c0.7,1,1.4,2,2.2,3c5.5,7.1,9.4,16.2,9.1,24.3c1.4-1.2,2.7-2.5,4-3.8c0-4.2-0.2-9.1-0.8-14.9
		c-1-10.3,2.7-19.4,7.6-26.1C412.4,83.7,404.6,89.4,398.4,97.5z"/>
	<path class="st0" d="M322.2,327l-0.7-1.7c-1.1,1.1-2.9,2.1-5.4,2.1c-3,0-5.6-2.1-5.6-5.6c0-3.6,2.6-5.8,7.3-5.9l3.5-0.1
		c0-0.2,0-0.6,0-0.7c0-2.8-1.6-3.8-3.7-3.8c-2.2,0-3.7,0.8-4.7,1.6l-1.3-2.3c2.2-1.6,4.3-2.1,6.6-2.1c3.8,0,6.5,1.6,6.5,6.2v6.1
		c0,4.3,0.1,5.5,0.4,6.2H322.2z M321.3,318.4l-3.3,0.1c-3,0.1-4.2,1.1-4.2,2.9c0,1.7,1.1,3,3.3,3c2.1,0,3.4-1,4.2-1.8V318.4z"/>
	<path class="st0" d="M342.7,327V316c0-2.1-0.3-4.5-3-4.5c-2,0-3.8,1.3-5.3,2.5V327h-3.4v-18h2.8l0.4,2.1c2.1-1.5,3.9-2.5,6.4-2.5
		c2.6,0,5.3,1.8,5.3,6.4V327H342.7z"/>
	<path class="st0" d="M364.8,310.9c1.6,1.7,2.5,4.1,2.5,7c0,2.9-0.9,5.4-2.6,7c-1.5,1.5-3.5,2.4-6,2.4c-2.4,0-4.3-0.8-5.8-2.2
		c-1.7-1.7-2.6-4.2-2.6-7.2c0-2.9,0.9-5.4,2.5-7.1c1.5-1.5,3.5-2.4,5.9-2.4C361.2,308.5,363.3,309.4,364.8,310.9z M353.7,317.9
		c0,4,1.9,6.7,5.1,6.7c3.2,0,5-2.7,5-6.7c0-4-1.8-6.6-5.1-6.6C355.5,311.3,353.7,313.9,353.7,317.9z"/>
	<path class="st0" d="M376.8,327.3c-2.8,0-4.1-1.6-4.1-4v-11.7h-3v-2.7h3v-4l3.4-1.1v5.1h5.6l-1.1,2.7h-4.5v10.6
		c0,1.5,0.6,2.2,1.8,2.2c1.2,0,2.4-0.6,3.1-1.2l1,2.3C380.5,326.6,378.5,327.3,376.8,327.3z"/>
	<path class="st0" d="M398.4,327v-11c0-2.2-0.4-4.4-3-4.4c-2,0-3.8,1.3-5.1,2.5V327h-3.4v-27h3.4v11c1.9-1.4,3.7-2.5,6.2-2.5
		c2.6,0,5.4,1.6,5.4,6.6V327H398.4z"/>
	<path class="st0" d="M435.8,312.2c-0.5-0.3-1.1-0.4-1.9-0.4c-1.1,0-2.6,0.8-3.8,2V327h-3.4v-18h2.8l0.4,2c2.2-2.1,3.7-2.5,5.1-2.5
		c0.8,0,1.6,0.3,2.1,0.6L435.8,312.2z"/>
	<path class="st0" d="M471,327.1h-2.8l-4.3-13.8h-0.1l-4.3,13.8h-2.8l-6.2-18.1h3.4l4.2,13.6h0.1l4.3-13.6h2.9l4.3,13.6h0.1
		l4.2-13.6h3.2L471,327.1z"/>
	<path class="st0" d="M493.7,310.9c1.6,1.7,2.5,4.1,2.5,7c0,2.9-0.9,5.4-2.6,7c-1.5,1.5-3.5,2.4-6,2.4c-2.4,0-4.3-0.8-5.8-2.2
		c-1.7-1.7-2.6-4.2-2.6-7.2c0-2.9,0.9-5.4,2.6-7.1c1.5-1.5,3.5-2.4,5.9-2.4C490.1,308.5,492.2,309.4,493.7,310.9z M482.6,317.9
		c0,4,1.9,6.7,5.1,6.7c3.2,0,5-2.7,5-6.7c0-4-1.8-6.6-5.1-6.6C484.4,311.3,482.6,313.9,482.6,317.9z"/>
	<path class="st0" d="M509.4,312.2c-0.5-0.3-1.1-0.4-1.9-0.4c-1.1,0-2.6,0.8-3.8,2V327h-3.4v-18h2.8l0.4,2c2.2-2.1,3.7-2.5,5.1-2.5
		c0.8,0,1.6,0.3,2.1,0.6L509.4,312.2z"/>
	<path class="st0" d="M518.3,327.3c-2.5,0-3.5-1.5-3.5-3.5V300h3.4v22.3c0,1.6,0.4,2,1.4,2c0.2,0,0.6,0,1.1-0.2l0.4,2.5
		C520.1,327.2,519.2,327.3,518.3,327.3z"/>
	<path class="st0" d="M533.8,327.3c-5.1,0-9.4-3-9.4-9.2c0-5.6,4.2-9.7,9.5-9.7c1.2,0,2,0.1,2.7,0.3V300h3.4v26
		C538.7,326.7,536.5,327.3,533.8,327.3z M536.6,311.7c-0.7-0.2-1.3-0.4-2.6-0.4c-3.4,0-6.3,2.6-6.3,6.6c0,3.8,2.2,6.5,6.5,6.5
		c0.8,0,1.8-0.2,2.3-0.4V311.7z"/>
	<path class="st0" d="M12.9,285.5c-4.9,0-7.3-2.7-7.3-6.8V257H0v-4.2h5.6v-7l5.3-1.7v8.7h10.5l-1.9,4.2h-8.6v20.2
		c0,2.7,1.1,3.9,3.3,3.9c2.5,0,4.7-1.3,6.1-2.3l1.7,3.5C19.4,284.1,16.1,285.5,12.9,285.5z"/>
	<path class="st0" d="M49.9,284.9v-19.9c0-4-0.8-8.3-6.2-8.3c-4.1,0-7.7,2.7-10.4,5v23.2H28v-48h5.3v19.7c3.8-2.7,7.2-4.6,11.9-4.6
		c4.8,0,9.9,3,9.9,11.7v21.1H49.9z"/>
	<path class="st0" d="M122.1,285.5c-4.9,0-7.9-1.2-10.1-2.4l2-3.9c1.6,0.9,4.6,2.3,8.3,2.3c4.2,0,7.2-1.8,7.2-4.7
		c0-7.9-15.6-5.1-15.6-16.3c0-4.6,3.5-8.5,11.4-8.5c3.6,0,6.4,0.7,8.6,1.7v4.3c-2.4-0.9-4.9-1.9-8.4-1.9c-3.5,0-6.4,1.2-6.4,4.1
		c0,7.2,15.9,5.4,15.9,15.9C135.1,282.8,129.1,285.5,122.1,285.5z"/>
	<path class="st0" d="M190.5,287.9c-4.1,11-9.3,13-15,13c-2.8,0-4.6-0.5-6.2-1.2l1.3-3.9c1.3,0.6,2.9,1,5,1c4.3,0,8.1-3.2,10.6-11.7
		l-15.4-32.4h5.6l12.2,26.2h0.2l9.3-26.2h5.3L190.5,287.9z"/>
	<path class="st0" d="M222.9,285.5c-10.5,0-15.9-7.7-15.9-16.3c0-8.9,5.5-17.2,16.9-17.2c3.1,0,6.4,0.8,8.7,2v4.7
		c-2.2-1.3-5.1-2.4-8.9-2.4c-7.2,0-11.4,5.4-11.4,12.6c0,7.1,4.2,12.3,11.2,12.3c3.8,0,6.4-1.2,8.5-2.4l1.7,3.5
		C231.2,284,227.3,285.5,222.9,285.5z"/>
	<path class="st0" d="M262.5,284.9v-19.9c0-4-0.8-8.3-6.2-8.3c-4.1,0-7.7,2.7-10.4,5v23.2h-5.3v-48h5.3v19.7
		c3.8-2.7,7.2-4.6,11.9-4.6c4.8,0,9.9,3,9.9,11.7v21.1H262.5z"/>
	<path class="st0" d="M315.9,285.5c-4.2,0-6-2.5-6-5.9v-42.8h5.3v40.5c0,3,0.8,3.7,2.8,3.7c0.4,0,0.9,0,1.8-0.2l0.7,3.6
		C318.8,285.2,317.6,285.5,315.9,285.5z"/>
	<path class="st0" d="M332.2,285.5c-4.2,0-6-2.5-6-5.9v-42.8h5.3v40.5c0,3,0.8,3.7,2.8,3.7c0.4,0,0.9,0,1.8-0.2l0.7,3.6
		C335.2,285.2,334,285.5,332.2,285.5z"/>
	<path class="st0" d="M382,285.5c-4.9,0-7.9-1.2-10.1-2.4l2-3.9c1.6,0.9,4.6,2.3,8.3,2.3c4.2,0,7.2-1.8,7.2-4.7
		c0-7.9-15.6-5.1-15.6-16.3c0-4.6,3.5-8.5,11.4-8.5c3.6,0,6.4,0.7,8.6,1.7v4.3c-2.4-0.9-4.8-1.9-8.4-1.9c-3.5,0-6.4,1.2-6.4,4.1
		c0,7.2,15.9,5.4,15.9,15.9C395,282.8,389,285.5,382,285.5z"/>
	<path class="st0" d="M421.3,284.9v-32.1h5.3v32.1H421.3z"/>
	<path class="st0" d="M443.8,285.5c-4.9,0-7.9-1.2-10.1-2.4l2-3.9c1.6,0.9,4.6,2.3,8.3,2.3c4.2,0,7.2-1.8,7.2-4.7
		c0-7.9-15.6-5.1-15.6-16.3c0-4.6,3.5-8.5,11.4-8.5c3.6,0,6.4,0.7,8.6,1.7v4.3c-2.4-0.9-4.9-1.9-8.4-1.9c-3.5,0-6.4,1.2-6.4,4.1
		c0,7.2,15.9,5.4,15.9,15.9C456.7,282.8,450.8,285.5,443.8,285.5z"/>
	<path class="st0" d="M470,285.5c-4.2,0-6-2.5-6-5.9v-42.8h5.3v40.5c0,3,0.8,3.7,2.8,3.7c0.4,0,0.9,0,1.8-0.2l0.7,3.6
		C472.9,285.2,471.7,285.5,470,285.5z"/>
	<path class="st0" d="M500.9,284.9l-1.4-3.1c-2.1,1.9-5.4,3.8-10.5,3.8c-5.6,0-10.5-3.7-10.5-9.8c0-6.3,4.7-10.2,13.8-10.4l6.9-0.2
		c0-0.5,0-1.2,0-1.5c0-5.5-3-7.3-7.4-7.3c-4.4,0-7.2,1.7-9,3l-2.2-3.6c4.1-2.8,7.7-3.7,12.1-3.7c6.5,0,11.7,2.6,11.7,10.8v9.8
		c0,9.1,0.3,11.2,0.7,12.3H500.9z M499.2,269.5l-6.8,0.2c-6.2,0.2-8.6,2.2-8.6,5.7c0,3.3,2.2,5.9,6.7,5.9c4.5,0,7.2-2.1,8.8-3.7
		V269.5z"/>
	<path class="st0" d="M534.7,284.9v-19.7c0-4-0.7-8.5-5.9-8.5c-4.2,0-8,2.8-10.6,5v23.2h-5.3v-32.1h4.3l0.7,3.8
		c4.1-2.8,7.5-4.6,12.2-4.6c4.9,0,9.8,3.3,9.8,11.3v21.6H534.7z"/>
	<path class="st0" d="M563.8,285.5c-9.6,0-17.6-5.2-17.6-16.3c0-10,7.9-17.3,17.7-17.3c2.5,0,4.2,0.2,5.6,0.5v-15.7h5.3v46.4
		C572.6,284.4,568.6,285.5,563.8,285.5z M569.4,257.1c-1.4-0.5-2.6-0.8-5.3-0.8c-6.7,0-12.6,4.9-12.6,12.6c0,7.3,4.3,12.4,13.2,12.4
		c1.7,0,3.6-0.3,4.7-0.8V257.1z"/>
	<path class="st0" d="M590.9,285.5c-4.9,0-7.9-1.2-10.1-2.4l2-3.9c1.6,0.9,4.6,2.3,8.3,2.3c4.2,0,7.2-1.8,7.2-4.7
		c0-7.9-15.6-5.1-15.6-16.3c0-4.6,3.5-8.5,11.4-8.5c3.6,0,6.4,0.7,8.6,1.7v4.3c-2.4-0.9-4.8-1.9-8.4-1.9c-3.5,0-6.4,1.2-6.4,4.1
		c0,7.2,15.9,5.4,15.9,15.9C603.9,282.8,597.9,285.5,590.9,285.5z"/>
	<path class="st0" d="M147.4,275.5c0.8,1.5,1.8,2.7,3.1,3.6c1.8,1.2,4.1,2.1,7,2.1c2.9,0,6.1-1.1,8.1-2.3l1.6,3.4
		c-2.5,1.9-6.8,3.3-10.8,3.3c-10.7,0-15.9-8.2-15.9-17.3c0-9.3,5.6-16.2,13.9-16.2c6.7,0,11.1,3.8,12.8,9.9L147.4,275.5z
		 M161.4,260.8c-1.2-2.6-3.5-4.7-6.9-4.7c-2.7,0-4.8,1.2-6.3,3c-1.7,2.1-2.5,5.2-2.5,8.9c0,1.2,0.1,2.3,0.3,3.3L161.4,260.8z"/>
	<path class="st0" d="M346.9,275.5c0.8,1.5,1.8,2.7,3.1,3.6c1.8,1.2,4.1,2.1,7,2.1c2.9,0,6.1-1.1,8.1-2.3l1.6,3.4
		c-2.5,1.9-6.8,3.3-10.8,3.3c-10.7,0-15.9-8.2-15.9-17.3c0-9.3,5.6-16.2,13.9-16.2c6.7,0,11.1,3.8,12.8,9.9L346.9,275.5z
		 M360.9,260.8c-1.2-2.6-3.5-4.7-6.9-4.7c-2.7,0-4.8,1.2-6.3,3c-1.7,2.1-2.5,5.2-2.5,8.9c0,1.2,0.1,2.3,0.3,3.3L360.9,260.8z"/>
	<path class="st0" d="M282.3,275.5c0.8,1.5,1.9,2.7,3.1,3.6c1.8,1.2,4.1,2.1,7,2.1c2.9,0,6.1-1.1,8.1-2.3l1.6,3.4
		c-2.5,1.9-6.8,3.3-10.8,3.3c-10.7,0-15.9-8.2-15.9-17.3c0-9.3,5.6-16.2,13.9-16.2c6.7,0,11.1,3.8,12.8,9.9L282.3,275.5z
		 M296.3,260.8c-1.2-2.6-3.5-4.7-6.9-4.7c-2.7,0-4.8,1.2-6.3,3c-1.7,2.1-2.5,5.2-2.5,8.9c0,1.2,0.1,2.3,0.3,3.3L296.3,260.8z"/>
	<path class="st0" d="M68.9,275.5c0.8,1.5,1.8,2.7,3.1,3.6c1.8,1.2,4.1,2.1,7,2.1c2.9,0,6.1-1.1,8.1-2.3l1.6,3.4
		c-2.5,1.9-6.8,3.3-10.8,3.3c-10.7,0-15.9-8.2-15.9-17.3c0-9.3,5.6-16.2,13.9-16.2c6.7,0,11.1,3.8,12.8,9.9L68.9,275.5z M82.9,260.8
		c-1.2-2.6-3.5-4.7-6.9-4.7c-2.7,0-4.8,1.2-6.3,3c-1.7,2.1-2.5,5.2-2.5,8.9c0,1.2,0.1,2.3,0.3,3.3L82.9,260.8z"/>
	<path class="st0" d="M410.3,321.6c0.5,0.8,1.2,1.7,1.9,2.1c0.8,0.5,1.8,0.8,3,0.8c1.6,0,3.2-0.5,4.4-1.3l1,2.2
		c-1.6,1.2-3.9,1.9-6,1.9c-5.9,0-8.6-4.6-8.6-9.6c0-5.2,3-9.2,7.6-9.2c3.7,0,6.2,2.3,7.1,6L410.3,321.6z M417,313.8
		c-0.6-1.4-1.7-2.5-3.5-2.5c-1.2,0-2.3,0.5-3,1.4c-0.9,1.2-1.3,2.9-1.2,5c0,0.5,0.1,0.9,0.1,1.3L417,313.8z"/>
	<path class="st0" d="M327.6,166.9c-12.7,10-52.7,3.6-124.8-31.4c-11.2-5.5-22.5-8.8-33.5-10.5C126,110.4,84,120.5,58.1,141
		c-0.1,0.1-0.1,0.2-0.1,0.3c0,0.2,0.2,0.3,0.3,0.3c0.1,0,0.1,0,0.2-0.1c17.6-10.8,42.2-16,67.1-14.4c-12.9,3.3-24.4,8.9-33.7,16
		c-0.1,0.1-0.1,0.2-0.1,0.3c0,0.2,0.2,0.3,0.3,0.3c0.1,0,0.1,0,0.2-0.1c15.8-9.7,37.9-14,60.1-12c8.1,2.3,16,5.3,23.4,9.3
		c34.9,18.6,55.7,30.9,74.7,39.9c-17.8-0.8-38.6-2.9-62.8-6.4c-13.2-2-26-1.8-38.1-0.1c-49.1-1-91.5,22.1-115.2,50.2
		c-0.1,0.1-0.1,0.1-0.1,0.2c0,0.2,0.2,0.3,0.3,0.3c0.1,0,0.2,0,0.2-0.1c16.5-16.2,41.7-29,68.6-35.1c-13.1,7.3-24.2,16.4-32.7,26.2
		c-0.1,0.1-0.1,0.1-0.1,0.2c0,0.2,0.2,0.3,0.3,0.3c0.1,0,0.2,0,0.2-0.1c15.1-14.4,37.9-25.6,62.1-30.5c9.1-0.3,18,0.4,26.7,2
		c55.3,10.3,81.1,17.2,110.6,18.7C302.5,208.2,329.9,190.3,327.6,166.9z"/>
	<path class="st0" d="M367.2,126.9c-21.7-5.2-29.8-26.1-29.5-31.3c9.9,11.9,27.7,11.9,42.4,18.6c1.6-2.5,3-5.2,4.3-8
		c-5-5.8-11.6-24.8-3.1-39.5c0.3,9,5.5,14.8,9,20.5c3.9-15.8,7.7-31.1,17.8-39.4c-3.6,0.2-8.4,1.7-13.6,4.5
		c-0.9,0.5-1.8,1.1-2.7,1.7c1.6-15.7,4.2-30.1,12.8-39.8c-4.3,1-9.9,3.8-15.6,8.2c-4.2,3.2-8.4,7.3-12.1,12.2c0.5-0.9,1-1.8,1.6-2.7
		c-3.4,1.2-7.5,4.1-11.6,8.3c-6.9,7-13.4,17.7-15.2,30.3c-6.5-16.1-13.4-31.8-9.8-45.2c-2.8,2.2-5.8,6.3-8.3,11.6
		c-0.4,0.9-0.8,1.9-1.3,2.9c-8-13.6-14.3-26.8-13-39.7c-2.9,3.3-5.8,8.9-7.8,15.8c-1.5,5.1-2.5,10.8-2.7,17c-0.2-1-0.3-2.1-0.3-3.1
		c-2,3-3.7,7.8-4.5,13.5c-1.5,9.7-0.5,22.2,5.5,33.4c-14.7-9.2-29.5-17.8-34.5-30.8c-0.9,3.4-1,8.5,0.1,14.3c0.2,1,0.5,2.1,0.7,3.1
		C261.1,57,248.2,50,241.7,38.8c-0.4,4.4,0.5,10.6,3,17.4c1.7,4.8,4.3,9.9,7.6,14.9c-0.6-0.6-1.3-1.2-1.9-1.9
		c0.1,3.6,1.6,8.4,4.3,13.6c4.5,8.7,12.7,18.2,24.1,23.8c-17.3,1.2-34.4,2.9-46-4.6c1.3,3.3,4.2,7.5,8.5,11.5
		c0.7,0.7,1.6,1.4,2.4,2.1c-15.4,3.4-29.9,5.3-41.8,0.1c2.2,3.8,6.7,8.3,12.6,12.3c4.4,3,9.6,5.7,15.3,7.8c-1-0.2-2-0.4-3-0.7
		c2.2,2.8,6.2,5.9,11.5,8.5c11.4,5.7,28.5,9,44.6,1.8c24.4-10.9,38.1-13.2,43.8-10.7c-0.9-1.9-2-3.6-3.2-5.1
		c-0.2-0.5-0.3-0.9-0.5-1.3c2.4,0.7,4.2,1.6,5.4,2.6c-0.4-3.3-1.5-6.2-3-8.9c3.1,1.9,5.1,3.7,6.1,5.4c0.4-2.1,0.5-4.1,0.4-6
		c0.1-0.5,0.3-0.9,0.4-1.4c1.6,2,2.5,3.8,2.8,5.3c1.6-2.9,2.4-5.9,2.8-8.9c1.4,3.3,2,6,1.8,8c1.6-1.5,2.9-3,4-4.7
		c0.3-0.3,0.7-0.5,1-0.8c0.1,2.5-0.2,4.5-0.8,6c3.1-1.4,5.5-3.4,7.5-5.7c-0.8,3.6-1.9,6.1-3.3,7.6c2.1-0.2,4-0.8,5.9-1.5
		c0.5,0,0.9,0,1.4-0.1c-1.4,2.1-2.8,3.5-4.2,4.3C356.8,130.8,362.7,129.6,367.2,126.9z"/>
</g>
</svg>
