<?xml version="1.0" encoding="utf-8"?>
<!-- Generator: Adobe Illustrator 22.1.0, SVG Export Plug-In . SVG Version: 6.00 Build 0)  -->
<svg version="1.1" id="Layer_1" xmlns="http://www.w3.org/2000/svg" xmlns:xlink="http://www.w3.org/1999/xlink" x="0px" y="0px"
	 viewBox="0 0 70.5 68.4" style="enable-background:new 0 0 70.5 68.4;" xml:space="preserve">
<style type="text/css">
	.st0{fill:#FFFFFF;}
</style>
<g>
	<path class="st0" d="M39.4,65.7c11-19,21.4-35.1,31.2-48c-1.3-1.2-2.6-1.9-3.7-2.1c-1.2-0.2-2.2-0.3-3.1-0.4
		c-9.8,17.1-19.3,32-28.4,44.9C26.1,47.2,16.6,32.3,6.8,15.2c-0.9,0.1-2,0.2-3.1,0.4c-1.2,0.2-2.4,0.9-3.7,2.1
		c9.8,13,20.2,29,31.2,48c0,0-0.1,0.1-0.1,0.1c0.1,0.1,0.2,0.2,0.3,0.3c0.4,0.8,0.9,1.5,1.3,2.3c0.9-0.1,1.6-0.1,1.9-0.2
		c0.2,0,0.4-0.1,0.6-0.2c0.2,0,0.4,0.1,0.6,0.2c0.4,0.1,1,0.1,1.9,0.2c0.4-0.8,0.9-1.5,1.3-2.3c0.1-0.1,0.2-0.2,0.3-0.3
		C39.4,65.8,39.4,65.8,39.4,65.7z"/>
	<path class="st0" d="M31.1,42.8c0.1,0.1,0.2,0.2,0.3,0.3c0.4,0.7,0.9,1.5,1.3,2.3c0.9-0.1,1.6-0.1,1.9-0.2c0.2,0,0.4-0.1,0.6-0.2
		c0.2,0,0.4,0.1,0.6,0.2c0.4,0.1,1,0.1,1.9,0.2c0.4-0.8,0.9-1.5,1.3-2.3c0.1-0.1,0.2-0.2,0.3-0.3c0,0-0.1-0.1-0.1-0.1
		C49.7,24.7,53.4,19,63.2,6c-1.3-1.2-2.6-1.9-3.7-2.1c-1.2-0.2-2.2-0.3-3.1-0.4c-9.6,16.8-13.6,23.3-21.1,33.7
		C27.7,26.8,23.6,20.3,13.9,3.5c-0.9,0.1-2,0.2-3.1,0.4C9.6,4.1,8.4,4.8,7.1,6c9.8,13,13.7,18.7,24.1,36.7
		C31.1,42.8,31.1,42.8,31.1,42.8z"/>
	<path class="st0" d="M31.2,18.7c0,0-0.1,0.1-0.1,0.1c0.1,0.1,0.2,0.2,0.3,0.3c0.4,0.7,0.8,1.5,1.3,2.3c0.9-0.1,1.6-0.1,1.9-0.2
		c0.2,0,0.4-0.1,0.6-0.2c0.2,0,0.4,0.1,0.6,0.2c0.4,0.1,1,0.1,1.9,0.2c0.5-0.8,0.9-1.6,1.3-2.3c0.1-0.1,0.2-0.2,0.3-0.3
		c0,0-0.1-0.1-0.1-0.1c9.2-16.1,1.4-3.3,11.2-16.2c-1.3-1.2-2.6-1.9-3.7-2.1c-1.2-0.2-2.2-0.3-3.1-0.4c-9.1,15.8-5,9.3-8.4,13.5
		c-3.5-4.2,0.5,2.4-8.6-13.5c-0.9,0.1-2,0.2-3.1,0.4c-1.2,0.2-2.4,0.9-3.7,2.1C29.6,15.4,22,2.6,31.2,18.7z"/>
</g>
</svg>
